# xmcd CD database file
#
# Track frame offsets:
#	150
#	30884
#	47635
#	73336
#	102460
#	129585
#	156027
#	181464
#	199871
#
# Disc length: 3123 seconds
#
# Revision: 0
# Processed by: cddbd v1.5.2PL0 Copyright (c) Steve Scherf et al.
# Submitted via: CDex 1.70beta2
#
DISCID=7a0c3109
DTITLE=Simon Spang-Hanssen - The Riddle
DYEAR=2005
DGENRE=Jazz
TTITLE0=I-Contact
TTITLE1=A Night in Lutetia 1
TTITLE2=Place aux Innocents
TTITLE3=The Riddle
TTITLE4=Original Sin
TTITLE5=Bluesando
TTITLE6=Night River
TTITLE7=A Night in Lutetia 2
TTITLE8=Moonstruck
EXTD=YEAR: 2005
EXTT0=
EXTT1=
EXTT2=
EXTT3=
EXTT4=
EXTT5=
EXTT6=
EXTT7=
EXTT8=
PLAYORDER=
